<svg xmlns="http://www.w3.org/2000/svg" width="101" height="101">
    <path fill="none" d="M.4.61h100v100H.4V.61z"/>
    <path fill-rule="evenodd" fill="#EEE" d="M96.11 42.151c-4.734 0-8.572 3.768-8.572 8.418 0 4.65 3.838 8.419 8.572 8.419 2.463 0 4.463 1.961 4.463 4.381 0 2.418-2 4.381-4.463 4.381a17.59 17.59 0 0 1-13.033-5.722 17.588 17.588 0 0 1-13.032 5.722 17.593 17.593 0 0 1-13.036-5.724 17.593 17.593 0 0 1-13.036 5.724 17.59 17.59 0 0 1-13.032-5.722A17.59 17.59 0 0 1 17.91 67.75C8.246 67.75.412 60.058.412 50.569V37.77c0-2.42 2-4.382 4.463-4.382 2.464 0 4.462 1.962 4.462 4.382v12.799c0 4.65 3.836 8.419 8.573 8.419 4.714 0 8.539-3.739 8.569-8.364l-.001-.055c0-9.488 7.833-17.181 17.495-17.181a17.59 17.59 0 0 1 13.036 5.725 17.59 17.59 0 0 1 13.036-5.725c5.179 0 9.829 2.211 13.032 5.722a17.59 17.59 0 0 1 13.033-5.722c2.463 0 4.463 1.962 4.463 4.382 0 2.419-2 4.381-4.463 4.381zm-52.137 0c-4.735 0-8.572 3.768-8.572 8.418h.003l-.001.044c.024 4.63 3.85 8.375 8.57 8.375 4.737 0 8.574-3.769 8.574-8.419s-3.837-8.418-8.574-8.418zm26.072 0c-4.735 0-8.574 3.768-8.574 8.418 0 4.65 3.839 8.419 8.574 8.419 4.723 0 8.552-3.751 8.57-8.386l-.001-.033.001-.033c-.018-4.634-3.847-8.385-8.57-8.385z"/>
</svg>
