<svg xmlns="http://www.w3.org/2000/svg" width="64" height="64">
    <path fill="none" d="M0 0h64v64H0V0z"/>
    <path fill-rule="evenodd" fill="#111" d="M61.139 26.607c-3.024 0-5.476 2.414-5.476 5.392s2.452 5.392 5.476 5.392c1.574 0 2.851 1.256 2.851 2.806 0 1.549-1.277 2.806-2.851 2.806-3.313 0-6.28-1.427-8.327-3.681a11.211 11.211 0 0 1-8.326 3.681 11.216 11.216 0 0 1-8.328-3.682 11.219 11.219 0 0 1-8.329 3.682 11.214 11.214 0 0 1-8.326-3.681 11.21 11.21 0 0 1-8.325 3.681c-6.173 0-11.179-4.927-11.179-11.004v-8.197c0-1.55 1.278-2.806 2.852-2.806 1.573 0 2.85 1.256 2.85 2.806v8.197c0 2.978 2.451 5.392 5.477 5.392 3.014 0 5.46-2.398 5.475-5.364l-.001-.028c0-6.077 5.005-11.003 11.177-11.003 3.314 0 6.282 1.427 8.329 3.682a11.213 11.213 0 0 1 8.328-3.682c3.313 0 6.28 1.427 8.326 3.68a11.218 11.218 0 0 1 8.327-3.68c1.574 0 2.851 1.256 2.851 2.806 0 1.549-1.277 2.805-2.851 2.805zm-33.31 0c-3.024 0-5.476 2.414-5.476 5.392h.002l-.001.024c.014 2.967 2.459 5.368 5.475 5.368 3.027 0 5.478-2.414 5.478-5.392s-2.451-5.392-5.478-5.392zm16.657 0c-3.025 0-5.477 2.414-5.477 5.392s2.452 5.392 5.477 5.392c3.02 0 5.467-2.405 5.476-5.376l-.001-.016.001-.016c-.009-2.971-2.456-5.376-5.476-5.376z"/>
</svg>
