<svg xmlns="http://www.w3.org/2000/svg" width="65" height="64">
    <path fill="none" d="M0 0h64v64H0V0z"/>
    <path fill-rule="evenodd" fill="#FFF" d="M61.288 26.608c-3.032 0-5.489 2.413-5.489 5.391s2.457 5.392 5.489 5.392c1.578 0 2.859 1.256 2.859 2.806 0 1.548-1.281 2.805-2.859 2.805a11.253 11.253 0 0 1-8.347-3.68 11.25 11.25 0 0 1-8.346 3.68 11.25 11.25 0 0 1-8.348-3.682 11.256 11.256 0 0 1-8.35 3.682c-3.32 0-6.294-1.426-8.346-3.68a11.252 11.252 0 0 1-8.345 3.68c-6.189 0-11.207-4.926-11.207-11.003v-8.197c0-1.55 1.281-2.806 2.858-2.806 1.578 0 2.858 1.256 2.858 2.806v8.197c0 2.978 2.457 5.392 5.491 5.392 3.022 0 5.473-2.4 5.488-5.366l-.001-.026c0-6.077 5.017-11.003 11.204-11.003 3.322 0 6.298 1.427 8.35 3.682a11.25 11.25 0 0 1 8.348-3.682c3.321 0 6.295 1.427 8.346 3.68a11.257 11.257 0 0 1 8.347-3.68c1.578 0 2.859 1.256 2.859 2.806 0 1.549-1.281 2.806-2.859 2.806zm-33.391 0c-3.032 0-5.49 2.413-5.49 5.391h.003l-.001.021c.011 2.968 2.463 5.371 5.488 5.371 3.034 0 5.492-2.414 5.492-5.392s-2.458-5.391-5.492-5.391zm16.698 0c-3.032 0-5.491 2.413-5.491 5.391s2.459 5.392 5.491 5.392c3.027 0 5.48-2.405 5.489-5.376l-.001-.016.001-.016c-.009-2.97-2.462-5.375-5.489-5.375z"/>
</svg>
