<svg xmlns="http://www.w3.org/2000/svg" width="1920" height="917">
    <path fill="none" d="M-.01 0h1920v917H-.01V0z"/>
    <path fill-rule="evenodd" fill="#111" d="M1454.352 579.402c-5.125 0-8.874-3.75-8.874-8.625v-1.25c0-4.875 3.749-8.625 8.874-8.625 5 0 8.75 3.75 8.75 8.625v1.25c0 4.875-3.75 8.625-8.75 8.625zm-4.124-136c-5.125 0-8.875-3.75-8.875-8.625v-1.25c0-4.875 3.75-8.625 8.875-8.625 5 0 8.75 3.75 8.75 8.625v1.25c0 4.875-3.75 8.625-8.75 8.625zm-25.875 107.75h-41.374c1.625 10.75 9.25 16.75 18.999 16.75 6.375 0 11.375-2.25 15.625-5.75 1.125-.875 2.125-1.375 3.875-1.375 3.375 0 6 2.625 6 6.125 0 1.875-.875 3.5-2 4.625-6 5.375-13.5 8.75-23.75 8.75-19.124 0-33.874-13.875-33.874-34.25v-.25c0-18.875 13.375-34.374 32.249-34.374 21 0 31.375 17.249 31.375 32.499 0 4.25-3.25 7.25-7.125 7.25zm-24.374-27.375c-9.25 0-15.75 7.125-17.125 17.375h33.874c-1-9.75-6.75-17.375-16.749-17.375zm16.374-80.375c-4.25 0-7.625-3.25-7.625-7.5v-4.125c-4.875 6.875-11.749 12.375-22.499 12.375-15.5 0-30.625-12.375-30.625-34.25v-.25c0-21.875 14.875-34.249 30.625-34.249 10.874 0 17.749 5.375 22.499 11.624v-28.624c0-4.25 3.375-7.5 7.5-7.5 4.25 0 7.625 3.25 7.625 7.5v77.499c0 4.25-3.375 7.5-7.5 7.5zm-7.375-33.75c0-12.75-9-21.125-19.124-21.125-10.375 0-19 8-19 21.125v.25c0 12.75 8.75 21.125 19 21.125 10.124 0 19.124-8.5 19.124-21.125v-.25zm-5.001-102.25c-5.125 0-8.875-3.75-8.875-8.625v-1.25c0-4.875 3.75-8.625 8.875-8.625 5 0 8.75 3.75 8.75 8.625v1.25c0 4.875-3.75 8.625-8.75 8.625zm-33.874 0c-4.25 0-7.625-3.25-7.625-7.5v-4.125c-4.875 6.875-11.75 12.375-22.5 12.375-15.499 0-30.624-12.375-30.624-34.25v-.25c0-21.875 14.875-34.249 30.624-34.249 10.875 0 17.75 5.375 22.5 11.624v-28.624c0-4.25 3.375-7.5 7.5-7.5 4.25 0 7.625 3.25 7.625 7.5v77.499c0 4.25-3.375 7.5-7.5 7.5zm-7.375-33.75c0-12.75-9-21.125-19.125-21.125-10.375 0-18.999 8-18.999 21.125v.25c0 12.75 8.749 21.125 18.999 21.125 10.125 0 19.125-8.5 19.125-21.125v-.25zm-57.873 117c-10.75 1.875-18.125 10.125-18.125 25.75v19.5c0 4.125-3.375 7.5-7.625 7.5-4.125 0-7.5-3.25-7.5-7.5v-52.249c0-4.25 3.25-7.625 7.5-7.625a7.576 7.576 0 0 1 7.625 7.625v6.749c3.5-8.249 10-14.499 16.625-14.499 4.75 0 7.5 3.125 7.5 7.5 0 3.999-2.625 6.624-6 7.249zm-17.876-83.25c-4.25 0-7.625-3.25-7.625-7.5v-30.625c0-10.25-5.125-16.125-14.125-16.125-8.75 0-14.875 6.125-14.875 16.375v30.375c0 4.25-3.375 7.5-7.625 7.5-4.125 0-7.5-3.25-7.5-7.5v-52.249c0-4.25 3.25-7.625 7.5-7.625a7.576 7.576 0 0 1 7.625 7.625v3.249c4.25-6.124 10.375-11.499 20.625-11.499 14.875 0 23.499 9.999 23.499 25.249v35.25c0 4.25-3.25 7.5-7.499 7.5zm-30.749 102.25v.25c0 18.75-15 34.375-35.375 34.375-20.125 0-34.999-15.375-34.999-34.125v-.25c0-18.875 14.999-34.499 35.249-34.499s35.125 15.374 35.125 34.249zm-35.375-21c-12.125 0-19.875 9.5-19.875 21v.25c0 11.5 8.375 21.125 20.125 21.125 12.25 0 20-9.5 20-20.875v-.25c0-11.625-8.375-21.25-20.25-21.25zm-8.25-109.5h-41.374c1.625 10.75 9.249 16.75 18.999 16.75 6.375 0 11.375-2.25 15.625-5.75 1.125-.875 2.125-1.375 3.875-1.375 3.375 0 6 2.625 6 6.125 0 1.875-.875 3.5-2 4.625-6 5.375-13.5 8.75-23.75 8.75-19.124 0-33.874-13.875-33.874-34.25v-.25c0-18.875 13.375-34.374 32.249-34.374 21 0 31.375 17.249 31.375 32.499 0 4.25-3.25 7.25-7.125 7.25zm-24.375-27.375c-9.25 0-15.749 7.125-17.124 17.375h33.874c-1-9.75-6.75-17.375-16.75-17.375zm-20.125 124.251c4.125 0 7.125 3.25 7.125 7 0 1.125-.375 2.624-.625 3.374l-18 50.75c-1.625 4.625-4.75 6.75-8.375 6.75h-.5c-3.75 0-6.875-2.125-8.25-6.5l-12.875-39.25-12.999 39.25c-1.375 4.375-4.5 6.5-8.125 6.5h-.5c-3.75 0-6.875-2.125-8.375-6.75l-17.75-50.25c-.375-1-.75-2.624-.75-3.874 0-3.625 2.875-7 7.375-7 3.75 0 6.25 2.5 7.375 6l12.75 39.999 12.875-39.999c1.125-3.5 3.874-6 7.749-6h.875c3.875 0 6.625 2.5 7.75 6l13 39.999 12.875-40.124c1-3.25 3.375-5.875 7.375-5.875zm-26.749-121.376c-10.75 1.875-18.125 10.125-18.125 25.75v19.5c0 4.125-3.375 7.5-7.625 7.5-4.125 0-7.5-3.25-7.5-7.5v-52.249c0-4.25 3.25-7.625 7.5-7.625a7.576 7.576 0 0 1 7.625 7.625v6.749c3.5-8.249 10-14.499 16.625-14.499 4.75 0 7.5 3.125 7.5 7.5 0 3.999-2.625 6.624-6 7.249zm-54.499-.875h-11.875v32.375c0 5.875 3 8.25 8.125 8.25 1.75 0 3.25-.375 3.75-.375 3.375 0 6.374 2.75 6.374 6.25 0 2.75-1.874 5-3.999 5.875-3.25 1.125-6.375 1.75-10.375 1.75-11.125 0-19-4.875-19-19.375v-34.75h-2.5a6.455 6.455 0 0 1-6.5-6.499c0-3.625 2.875-6.5 6.5-6.5h2.5v-11.25c0-4.125 3.375-7.5 7.625-7.5 4.125 0 7.5 3.375 7.5 7.5v11.25h11.875c3.625 0 6.624 2.875 6.624 6.5 0 3.624-2.999 6.499-6.624 6.499zm-26.626 265.876c1 .875 2.375 2.749 2.375 5.249 0 3.875-3.125 6.875-7 6.875-1.875 0-3.5-.75-4.5-1.5-3.874-3.25-8.124-5.625-14.124-5.625-11 0-19.125 9.5-19.125 21v.25c0 11.75 8.125 21.125 19.75 21.125 6 0 10.624-2.375 14.749-5.875.875-.75 2.375-1.625 4.125-1.625 3.625 0 6.5 3 6.5 6.625 0 2-.75 3.625-2.125 4.75-5.875 5.625-13 9.375-23.999 9.375-19.625 0-34.125-15.375-34.125-34.125v-.25c0-18.75 14.5-34.499 34.375-34.499 10.375 0 17.499 3.375 23.124 8.25zm-37.498-104.501h-41.374c1.625 10.75 9.25 16.75 19 16.75 6.374 0 11.374-2.25 15.624-5.75 1.125-.875 2.125-1.375 3.875-1.375 3.375 0 6 2.625 6 6.125 0 1.875-.875 3.5-2 4.625-6 5.375-13.5 8.75-23.749 8.75-19.125 0-33.875-13.875-33.875-34.25v-.25c0-18.875 13.375-34.374 32.25-34.374 20.999 0 31.374 17.249 31.374 32.499 0 4.25-3.25 7.25-7.125 7.25zm-24.374-27.375c-9.25 0-15.75 7.125-17.125 17.375h33.874c-1-9.75-6.75-17.375-16.749-17.375zm-4.625-80.375c-4.375 0-7.375-3-7.375-6.375v-2.5c-4.5 5.375-11.375 9.625-21.5 9.625-12.374 0-23.374-7.125-23.374-20.375v-.25c0-14.25 11.125-21.25 27.249-21.25 7.375 0 12.625 1.125 17.75 2.75v-1.625c0-9.375-5.75-14.375-16.375-14.375-5.749 0-10.499 1-14.624 2.625-.875.25-1.625.375-2.375.375-3.5 0-6.375-2.75-6.375-6.25 0-2.749 1.875-5.124 4.125-5.999 6.25-2.375 12.625-3.875 21.249-3.875 9.875 0 17.25 2.625 21.875 7.375 4.875 4.749 7.125 11.749 7.125 20.374v32.5c0 4.125-3.25 7.25-7.375 7.25zm-7-28.875c-3.875-1.5-9-2.625-15-2.625-9.749 0-15.499 4.125-15.499 11v.25c0 6.375 5.625 10 12.874 10 10 0 17.625-5.75 17.625-14.125v-4.5zm-35.125 157.375c0 4.25-3.25 7.5-7.5 7.5s-7.625-3.25-7.625-7.5v-30.625c0-10.25-5.125-16.125-14.125-16.125-8.75 0-14.875 6.125-14.875 16.375v30.375c0 4.25-3.375 7.5-7.624 7.5-4.125 0-7.5-3.25-7.5-7.5v-77.499c0-4.125 3.25-7.5 7.5-7.5 4.249 0 7.624 3.375 7.624 7.5v28.499c4.25-6.124 10.375-11.499 20.625-11.499 14.875 0 23.5 9.999 23.5 25.249v35.25zm-65.872-156.75h-41.374c1.625 10.75 9.249 16.75 18.999 16.75 6.375 0 11.375-2.25 15.625-5.75 1.125-.875 2.125-1.375 3.875-1.375 3.375 0 6 2.625 6 6.125 0 1.875-.875 3.5-2 4.625-6 5.375-13.5 8.75-23.75 8.75-19.124 0-33.874-13.875-33.874-34.25v-.25c0-18.875 13.375-34.374 32.249-34.374 21 0 31.375 17.249 31.375 32.499 0 4.25-3.25 7.25-7.125 7.25zm-24.375-27.375c-9.25 0-15.749 7.125-17.124 17.375h33.874c-1-9.75-6.75-17.375-16.75-17.375zm-26 299.375h-41.374c1.625 10.75 9.25 16.75 18.999 16.75 6.375 0 11.375-2.25 15.625-5.75 1.125-.875 2.125-1.375 3.875-1.375 3.375 0 6 2.625 6 6.125 0 1.875-.875 3.5-2 4.625-6 5.375-13.5 8.75-23.75 8.75-19.124 0-33.874-13.875-33.874-34.25v-.25c0-18.875 13.375-34.374 32.249-34.374 21 0 31.375 17.249 31.375 32.499 0 4.25-3.25 7.25-7.125 7.25zm-24.375-27.375c-9.249 0-15.749 7.125-17.124 17.375h33.874c-1-9.75-6.75-17.375-16.75-17.375zm.626-270h-11.875v32.375c0 5.875 3 8.25 8.125 8.25 1.75 0 3.25-.375 3.75-.375 3.375 0 6.375 2.75 6.375 6.25 0 2.75-1.875 5-4 5.875-3.25 1.125-6.375 1.75-10.375 1.75-11.125 0-19-4.875-19-19.375v-34.75h-2.5a6.455 6.455 0 0 1-6.5-6.499c0-3.625 2.875-6.5 6.5-6.5h2.5v-11.25c0-4.125 3.375-7.5 7.625-7.5 4.125 0 7.5 3.375 7.5 7.5v11.25h11.875c3.625 0 6.625 2.875 6.625 6.5 0 3.624-3 6.499-6.625 6.499zm-30.751 161.375h-41.374c1.625 10.75 9.25 16.75 19 16.75 6.375 0 11.375-2.25 15.624-5.75 1.125-.875 2.125-1.375 3.875-1.375 3.375 0 6 2.625 6 6.125 0 1.875-.875 3.5-2 4.625-6 5.375-13.499 8.75-23.749 8.75-19.125 0-33.875-13.875-33.875-34.25v-.25c0-18.875 13.375-34.374 32.25-34.374 20.999 0 31.374 17.249 31.374 32.499 0 4.25-3.25 7.25-7.125 7.25zm-24.374-27.375c-9.25 0-15.75 7.125-17.125 17.375h33.874c-.999-9.75-6.749-17.375-16.749-17.375zm-.499-80.375c-4.375 0-7.375-3-7.375-6.375v-2.5c-4.5 5.375-11.375 9.625-21.5 9.625-12.375 0-23.374-7.125-23.374-20.375v-.25c0-14.25 11.124-21.25 27.249-21.25 7.375 0 12.625 1.125 17.75 2.75v-1.625c0-9.375-5.75-14.375-16.375-14.375-5.75 0-10.5 1-14.625 2.625-.875.25-1.625.375-2.375.375-3.5 0-6.374-2.75-6.374-6.25 0-2.749 1.874-5.124 4.124-5.999 6.25-2.375 12.625-3.875 21.25-3.875 9.875 0 17.25 2.625 21.875 7.375 4.875 4.749 7.125 11.749 7.125 20.374v32.5c0 4.125-3.25 7.25-7.375 7.25zm-7-28.875c-3.875-1.5-9-2.625-15-2.625-9.75 0-15.5 4.125-15.5 11v.25c0 6.375 5.625 10 12.875 10 10 0 17.625-5.75 17.625-14.125v-4.5zm-36.875 104.376c0 2.499-1.25 4.374-3.375 6.374l-17.5 16.125 20 26.125c1.375 1.875 2 3.25 2 5 0 4.125-3.25 6.875-7.125 6.875-3 0-4.75-1-6.625-3.375l-18.875-25.125-9.999 9.5v11.5c0 4.25-3.375 7.5-7.625 7.5-4.125 0-7.5-3.25-7.5-7.5v-77.499c0-4.125 3.25-7.5 7.5-7.5s7.625 3.375 7.625 7.5v48.749l28.374-27.874c2-2 3.875-3.25 6.5-3.25 4 0 6.625 3.25 6.625 6.875zM685.49 279.152h-41.374c1.625 10.75 9.25 16.75 18.999 16.75 6.375 0 11.375-2.25 15.625-5.75 1.125-.875 2.125-1.375 3.875-1.375 3.375 0 6 2.625 6 6.125 0 1.875-.875 3.5-2 4.625-6 5.375-13.5 8.75-23.749 8.75-19.125 0-33.875-13.875-33.875-34.25v-.25c0-18.875 13.375-34.374 32.25-34.374 20.999 0 31.374 17.249 31.374 32.499 0 4.25-3.25 7.25-7.125 7.25zm-24.374-27.375c-9.25 0-15.75 7.125-17.125 17.375h33.874c-1-9.75-6.75-17.375-16.749-17.375zm-23.751 151.875v32.5c0 4.125-3.25 7.25-7.375 7.25-4.375 0-7.375-3-7.375-6.375v-2.5c-4.499 5.375-11.374 9.625-21.499 9.625-12.375 0-23.375-7.125-23.375-20.375v-.25c0-14.25 11.125-21.25 27.25-21.25 7.375 0 12.625 1.125 17.749 2.75v-1.625c0-9.375-5.749-14.375-16.374-14.375-5.75 0-10.5 1-14.625 2.625-.875.25-1.625.375-2.375.375-3.5 0-6.375-2.75-6.375-6.25 0-2.749 1.875-5.124 4.125-5.999 6.25-2.375 12.625-3.875 21.25-3.875 9.875 0 17.249 2.625 21.874 7.375 4.875 4.749 7.125 11.749 7.125 20.374zm-14.375 10.875c-3.874-1.5-8.999-2.625-14.999-2.625-9.75 0-15.5 4.125-15.5 11v.25c0 6.375 5.625 10 12.875 10 10 0 17.624-5.75 17.624-14.125v-4.5zm-8.749-159.875c-10.75 1.875-18.125 10.125-18.125 25.75v19.5c0 4.125-3.374 7.5-7.624 7.5-4.125 0-7.5-3.25-7.5-7.5v-52.249c0-4.25 3.25-7.625 7.5-7.625a7.575 7.575 0 0 1 7.624 7.625v6.749c3.5-8.249 10-14.499 16.625-14.499 4.75 0 7.5 3.125 7.5 7.5 0 3.999-2.625 6.624-6 7.249zm-50.375 272c-10.75 1.875-18.124 10.125-18.124 25.75v19.5c0 4.125-3.375 7.5-7.625 7.5-4.125 0-7.5-3.25-7.5-7.5v-52.249c0-4.25 3.25-7.625 7.5-7.625a7.576 7.576 0 0 1 7.625 7.625v6.749c3.499-8.249 9.999-14.499 16.624-14.499 4.75 0 7.5 3.125 7.5 7.5 0 3.999-2.625 6.624-6 7.249zm-23-231.625c6 0 10.625-2.375 14.75-5.875.875-.75 2.375-1.625 4.125-1.625 3.625 0 6.5 3 6.5 6.625 0 2-.75 3.625-2.125 4.75-5.875 5.625-13 9.375-24 9.375-19.624 0-34.124-15.375-34.124-34.125v-.25c0-18.75 14.5-34.499 34.374-34.499 10.375 0 17.5 3.375 23.125 8.25 1 .875 2.375 2.749 2.375 5.249 0 3.875-3.125 6.875-7 6.875-1.875 0-3.5-.75-4.5-1.5-3.875-3.25-8.125-5.625-14.125-5.625-11 0-19.124 9.5-19.124 21v.25c0 11.75 8.124 21.125 19.749 21.125zm-22.5 92c5.25-6.999 12.249-11.624 22.249-11.624 14.375 0 23.125 9.125 23.125 25.249v35.25c0 4.25-3.25 7.5-7.5 7.5s-7.625-3.25-7.625-7.5v-30.625c0-10.5-4.875-16.125-13.375-16.125-8.25 0-14.124 5.75-14.124 16.375v30.375c0 4.25-3.375 7.5-7.5 7.5-4.25 0-7.625-3.25-7.625-7.5v-30.75c0-10.25-5-16-13.375-16s-14.125 6.25-14.125 16.375v30.375c0 4.25-3.375 7.5-7.625 7.5-4.125 0-7.5-3.25-7.5-7.5v-52.249c0-4.25 3.25-7.625 7.5-7.625a7.576 7.576 0 0 1 7.625 7.625v3.124c4.25-5.874 10-11.374 20.125-11.374 9.5 0 16.25 4.625 19.75 11.624zm-28.375 124.376c10.375 0 17.5 3.375 23.125 8.25 1 .875 2.375 2.749 2.375 5.249 0 3.875-3.125 6.875-7 6.875-1.875 0-3.5-.75-4.5-1.5-3.875-3.25-8.125-5.625-14.125-5.625-10.999 0-19.124 9.5-19.124 21v.25c0 11.75 8.125 21.125 19.749 21.125 6 0 10.625-2.375 14.75-5.875.875-.75 2.375-1.625 4.125-1.625 3.625 0 6.5 3 6.5 6.625 0 2-.75 3.625-2.125 4.75-5.875 5.625-13 9.375-24 9.375-19.624 0-34.124-15.375-34.124-34.125v-.25c0-18.75 14.5-34.499 34.374-34.499zm120.875 0c20.999 0 31.374 17.249 31.374 32.499 0 4.25-3.25 7.25-7.125 7.25h-41.374c1.625 10.75 9.25 16.75 19 16.75 6.375 0 11.374-2.25 15.624-5.75 1.125-.875 2.125-1.375 3.875-1.375 3.375 0 6 2.625 6 6.125 0 1.875-.875 3.5-2 4.625-6 5.375-13.5 8.75-23.749 8.75-19.125 0-33.875-13.875-33.875-34.25v-.25c0-18.875 13.375-34.374 32.25-34.374zm16.624 29.749c-1-9.75-6.75-17.375-16.749-17.375-9.25 0-15.75 7.125-17.125 17.375h33.874zm-36.251 106.876c3.75 0 6.25 2.5 7.375 6l12.75 39.999 12.875-39.999c1.125-3.5 3.875-6 7.75-6h.875c3.875 0 6.625 2.5 7.75 6l12.999 39.999 12.875-40.124c1-3.25 3.375-5.875 7.375-5.875 4.125 0 7.125 3.25 7.125 7 0 1.124-.375 2.624-.625 3.374l-18 50.75c-1.625 4.625-4.75 6.75-8.375 6.75h-.5c-3.75 0-6.875-2.125-8.25-6.5l-12.874-39.25-13 39.25c-1.375 4.375-4.5 6.5-8.125 6.5h-.5c-3.75 0-6.875-2.125-8.375-6.75l-17.75-50.25c-.375-1-.75-2.625-.75-3.874 0-3.625 2.875-7 7.375-7zm62.126-88.251v-.25c0-14.25 11.125-21.25 27.249-21.25 7.375 0 12.625 1.125 17.75 2.75v-1.625c0-9.375-5.75-14.375-16.375-14.375-5.75 0-10.5 1-14.625 2.625-.875.25-1.625.375-2.374.375-3.5 0-6.375-2.75-6.375-6.25 0-2.749 1.875-5.124 4.125-5.999 6.249-2.375 12.624-3.875 21.249-3.875 9.875 0 17.25 2.625 21.875 7.375 4.875 4.749 7.125 11.749 7.125 20.374v32.5c0 4.125-3.25 7.25-7.375 7.25-4.375 0-7.375-3-7.375-6.375v-2.5c-4.5 5.375-11.375 9.625-21.5 9.625-12.374 0-23.374-7.125-23.374-20.375zm45.249-4.75v-4.5c-3.875-1.5-9-2.625-15-2.625-9.75 0-15.5 4.125-15.5 11v.25c0 6.375 5.625 10 12.875 10 10 0 17.625-5.75 17.625-14.125zm25.25 92.376c20.999 0 31.374 17.249 31.374 32.499 0 4.25-3.25 7.25-7.125 7.25h-41.374c1.625 10.75 9.25 16.75 18.999 16.75 6.375 0 11.375-2.25 15.625-5.75 1.125-.875 2.125-1.375 3.875-1.375 3.375 0 6 2.625 6 6.125 0 1.875-.875 3.5-2 4.625-6 5.375-13.5 8.75-23.75 8.75-19.124 0-33.874-13.875-33.874-34.25v-.25c0-18.875 13.375-34.374 32.25-34.374zm16.624 29.749c-1-9.75-6.75-17.375-16.749-17.375-9.25 0-15.75 7.125-17.125 17.375h33.874zm-6.25-116.625v-34.75h-2.5a6.454 6.454 0 0 1-6.499-6.499c0-3.625 2.874-6.5 6.499-6.5h2.5v-11.25c0-4.125 3.375-7.5 7.625-7.5 4.125 0 7.5 3.375 7.5 7.5v11.25h11.875c3.625 0 6.625 2.875 6.625 6.5 0 3.624-3 6.499-6.625 6.499h-11.875v32.375c0 5.875 3 8.25 8.125 8.25 1.75 0 3.25-.375 3.75-.375 3.375 0 6.375 2.75 6.375 6.25 0 2.75-1.875 5-4 5.875-3.25 1.125-6.375 1.75-10.375 1.75-11.125 0-19-4.875-19-19.375zm96.873 113.75c7.375 0 12.624 1.125 17.749 2.75v-1.625c0-9.375-5.75-14.375-16.374-14.375-5.75 0-10.5 1-14.625 2.625-.875.25-1.625.375-2.375.375-3.5 0-6.375-2.75-6.375-6.25 0-2.749 1.875-5.124 4.125-5.999 6.25-2.375 12.625-3.875 21.25-3.875 9.874 0 17.249 2.625 21.874 7.374 4.875 4.75 7.125 11.75 7.125 20.375v32.5c0 4.125-3.25 7.25-7.375 7.25-4.375 0-7.375-3-7.375-6.375v-2.5c-4.5 5.375-11.374 9.625-21.499 9.625-12.375 0-23.375-7.125-23.375-20.375v-.25c0-14.25 11.125-21.25 27.25-21.25zm-12.5 20.875c0 6.375 5.625 10 12.875 10 9.999 0 17.624-5.75 17.624-14.125v-4.5c-3.875-1.5-8.999-2.625-14.999-2.625-9.75 0-15.5 4.125-15.5 11v.25zm25.499-270.625v-34.75h-2.5a6.455 6.455 0 0 1-6.5-6.499c0-3.625 2.875-6.5 6.5-6.5h2.5v-11.25c0-4.125 3.375-7.5 7.625-7.5 4.125 0 7.5 3.375 7.5 7.5v11.25h11.875c3.625 0 6.625 2.875 6.625 6.5 0 3.624-3 6.499-6.625 6.499h-11.875v32.375c0 5.875 3 8.25 8.125 8.25 1.75 0 3.25-.375 3.75-.375 3.375 0 6.375 2.75 6.375 6.25 0 2.75-1.875 5-4 5.875-3.25 1.125-6.375 1.75-10.375 1.75-11.125 0-19-4.875-19-19.375zm45 223.501a7.576 7.576 0 0 1 7.625 7.625v6.749c3.5-8.249 9.999-14.499 16.624-14.499 4.75 0 7.5 3.125 7.5 7.499 0 4-2.625 6.625-6 7.25-10.75 1.875-18.124 10.125-18.124 25.75v19.5c0 4.125-3.375 7.5-7.625 7.5-4.125 0-7.5-3.25-7.5-7.5v-52.249c0-4.25 3.25-7.625 7.5-7.625zm2-88.251v-.25c0-14.25 11.125-21.25 27.25-21.25 7.374 0 12.624 1.125 17.749 2.75v-1.625c0-9.375-5.75-14.375-16.375-14.375-5.749 0-10.499 1-14.624 2.625-.875.25-1.625.375-2.375.375-3.5 0-6.375-2.75-6.375-6.25 0-2.749 1.875-5.124 4.125-5.999 6.25-2.375 12.625-3.875 21.249-3.875 9.875 0 17.25 2.625 21.875 7.375 4.875 4.749 7.125 11.749 7.125 20.374v32.5c0 4.125-3.25 7.25-7.375 7.25-4.375 0-7.375-3-7.375-6.375v-2.5c-4.5 5.375-11.375 9.625-21.499 9.625-12.375 0-23.375-7.125-23.375-20.375zm45.249-4.75v-4.5c-3.875-1.5-9-2.625-15-2.625-9.749 0-15.499 4.125-15.499 11v.25c0 6.375 5.625 10 12.875 10 9.999 0 17.624-5.75 17.624-14.125zm25.5 92.376c20.999 0 31.374 17.249 31.374 32.499 0 4.25-3.25 7.25-7.125 7.25h-41.374c1.625 10.75 9.25 16.75 19 16.75 6.375 0 11.374-2.25 15.624-5.75 1.125-.875 2.125-1.375 3.875-1.375 3.375 0 6 2.625 6 6.125 0 1.875-.875 3.5-2 4.625-6 5.375-13.5 8.75-23.749 8.75-19.125 0-33.875-13.875-33.875-34.25v-.25c0-18.875 13.375-34.374 32.25-34.374zm16.624 29.749c-1-9.75-6.75-17.375-16.749-17.375-9.25 0-15.75 7.125-17.125 17.375h33.874zm76.123-54.249c4.25 0 7.625 3.375 7.625 7.5v77.499c0 4.25-3.375 7.5-7.625 7.5-4.125 0-7.5-3.25-7.5-7.5v-77.499c0-4.125 3.25-7.5 7.5-7.5zm29.876-110.875a7.576 7.576 0 0 1 7.625 7.625v30.624c0 10.25 5.125 16 14.125 16 8.749 0 14.874-6 14.874-16.25v-30.374a7.576 7.576 0 0 1 7.625-7.625c4.125 0 7.625 3.375 7.625 7.625v52.249c0 4.125-3.375 7.5-7.625 7.5-4.125 0-7.625-3.25-7.625-7.5v-3.375c-4.25 6.25-10.374 11.625-20.624 11.625-14.875 0-23.5-10-23.5-25.375v-35.124c0-4.25 3.375-7.625 7.5-7.625zm29.123 135.375c20.25 0 35.125 15.374 35.125 34.249v.25c0 18.75-15 34.375-35.375 34.375-20.125 0-34.999-15.375-34.999-34.125v-.25c0-18.875 14.999-34.499 35.249-34.499zm-20.125 34.499c0 11.5 8.375 21.125 20.125 21.125 12.25 0 20-9.5 20-20.875v-.25c0-11.625-8.375-21.25-20.25-21.25-12.125 0-19.875 9.5-19.875 21v.25zm70.126-194.999c4.25 0 7.625 3.375 7.625 7.5v77.499c0 4.25-3.375 7.5-7.625 7.5-4.125 0-7.5-3.25-7.5-7.5v-77.499c0-4.125 3.25-7.5 7.5-7.5zm38.125 7.125c4.125 0 7.5 3.375 7.5 7.5v11.25h11.874c3.625 0 6.625 2.875 6.625 6.5 0 3.624-3 6.499-6.625 6.499h-11.874v32.375c0 5.875 3 8.25 8.124 8.25 1.75 0 3.25-.375 3.75-.375 3.375 0 6.375 2.75 6.375 6.25 0 2.75-1.875 5-4 5.875-3.25 1.125-6.375 1.75-10.375 1.75-11.124 0-18.999-4.875-18.999-19.375v-34.75h-2.5a6.455 6.455 0 0 1-6.5-6.499c0-3.625 2.875-6.5 6.5-6.5h2.5v-11.25c0-4.125 3.375-7.5 7.625-7.5zm-6.001 153.375c20.249 0 35.124 15.374 35.124 34.249v.25c0 18.75-15 34.375-35.374 34.375-20.125 0-35-15.375-35-34.125v-.25c0-18.875 15-34.499 35.25-34.499zm-20.125 34.499c0 11.5 8.375 21.125 20.125 21.125 12.25 0 19.999-9.5 19.999-20.875v-.25c0-11.625-8.374-21.25-20.249-21.25-12.125 0-19.875 9.5-19.875 21v.25zm73.5-169.874a7.576 7.576 0 0 1 7.625 7.625v30.624c0 10.25 5.125 16 14.125 16 8.75 0 14.875-6 14.875-16.25v-30.374a7.576 7.576 0 0 1 7.625-7.625c4.124 0 7.624 3.375 7.624 7.625v52.249c0 4.125-3.375 7.5-7.624 7.5-4.125 0-7.625-3.25-7.625-7.5v-3.375c-4.25 6.25-10.375 11.625-20.625 11.625-14.875 0-23.5-10-23.5-25.375v-35.124c0-4.25 3.375-7.625 7.5-7.625zm27.874 135.375c10.375 0 17.5 3.375 23.125 8.25 1 .875 2.375 2.749 2.375 5.249 0 3.875-3.125 6.875-7 6.875-1.875 0-3.5-.75-4.5-1.5-3.875-3.25-8.125-5.625-14.125-5.625-10.999 0-19.124 9.5-19.124 21v.25c0 11.75 8.125 21.125 19.749 21.125 6 0 10.625-2.375 14.75-5.875.875-.75 2.375-1.625 4.125-1.625 3.625 0 6.5 3 6.5 6.625 0 2-.75 3.625-2.125 4.75-5.875 5.625-13 9.375-24 9.375-19.624 0-34.124-15.375-34.124-34.125v-.25c0-18.75 14.5-34.499 34.374-34.499zm48.001 49.499c5 0 8.75 3.75 8.75 8.625v1.25c0 4.875-3.75 8.625-8.75 8.625-5.125 0-8.875-3.75-8.875-8.625v-1.25c0-4.875 3.75-8.625 8.875-8.625zm-.875-261v-77.499c0-4.125 3.25-7.5 7.5-7.5 4.249 0 7.624 3.375 7.624 7.5v77.499c0 4.25-3.375 7.5-7.624 7.5-4.125 0-7.5-3.25-7.5-7.5zm3.25 143.5c-4.125 0-7.5-3.25-7.5-7.5v-52.249c0-4.25 3.25-7.625 7.5-7.625a7.576 7.576 0 0 1 7.624 7.625v6.749c3.5-8.249 10-14.499 16.625-14.499 4.75 0 7.5 3.125 7.5 7.5 0 3.999-2.625 6.624-6 7.249-10.75 1.875-18.125 10.125-18.125 25.75v19.5c0 4.125-3.375 7.5-7.624 7.5z"/>
    <text font-family="Gotham Rounded" fill="#00693E" transform="matrix(.68056 0 0 .68056 1060.896 213.703)" font-size="26.449">Lead the way</text>
    <text font-family="Gotham Rounded" fill="#00693E" transform="matrix(.68056 0 0 .68056 683.278 348.94)" font-size="26.449"> <tspan>Beautifully</tspan><tspan x="0" dy="2.269em"> </tspan>
</text>
    <text font-family="Gotham Rounded" fill="#00693E" transform="matrix(.68056 0 0 .68056 890.636 487.95)" font-size="26.449"> <tspan>Various</tspan><tspan x="0" dy="2.269em"> </tspan>
</text>
    <text font-family="Gotham Rounded" fill="#00693E" transform="matrix(.68056 0 0 .68056 1129.014 621.95)" font-size="26.449">Loocreatve</text>
</svg>
